<?xml version="1.0" encoding="UTF-8"?>
<!DOCTYPE svg PUBLIC "-//W3C//DTD SVG 1.1//EN" "http://www.w3.org/Graphics/SVG/1.1/DTD/svg11.dtd">
<svg version="1.1" id="Layer_1" xmlns="http://www.w3.org/2000/svg" xmlns:xlink="http://www.w3.org/1999/xlink" x="0px" y="0px" width="100%" height="100%" viewBox="0 0 612 787.5" enable-background="new 0 0 612 787.5" xml:space="preserve">
<g id="solid" xmlns:svg="http://www.w3.org/2000/svg" xmlns:sodipodi="http://sodipodi.sourceforge.net/DTD/sodipodi-0.dtd" xmlns:rdf="http://www.w3.org/1999/02/22-rdf-syntax-ns#" xmlns:dc="http://purl.org/dc/elements/1.1/" xmlns:cc="http://creativecommons.org/ns#" xmlns:inkscape="http://www.inkscape.org/namespaces/inkscape" inkscape:version="0.48.1 r9760" sodipodi:docname="twitter_bootstrap_logo.svg">
	<path id="bg" fill="#563D7C" d="M612,596c0,56.1-45.9,102-102,102H102C45.9,698,0,652.1,0,596V188C0,131.9,45.9,86,102,86h408   c56.1,0,102,45.9,102,102V596z"/>
	<g id="B" enable-background="new    ">
		<path fill="#FFFFFF" d="M166.3,219h173.5c32,0,57.7,7.3,77,22s29,36.8,29,66.5c0,18-4.397,33.4-13.2,46.2    c-8.8,12.8-21.397,22.8-37.8,29.8v1c22,4.7,38.7,15.1,50,31.2c11.3,16.2,17,36.397,17,60.8c0,14-2.5,27.1-7.5,39.2    c-5,12.2-12.8,22.7-23.5,31.5s-24.3,15.8-41,21s-36.5,7.8-59.5,7.8h-164V219L166.3,219z M228.8,368.5h102c15,0,27.5-4.2,37.5-12.8    c10-8.601,15-20.8,15-36.8c0-18-4.5-30.7-13.5-38c-9-7.301-22-11-39-11h-102V368.5L228.8,368.5z M228.8,525h110.5    c19,0,33.8-4.9,44.2-14.8c10.5-9.8,15.8-23.8,15.8-41.8c0-17.7-5.2-31.2-15.8-40.803c-10.6-9.6-25.2-14.197-44.2-14.197H228.8V525    z"/>
	</g>
</g>
</svg>